<mxfile host="app.diagrams.net" agent="Mozilla/5.0 (Macintosh; Intel Mac OS X 10_15_7) AppleWebKit/537.36 (KHTML, like Gecko) Chrome/136.0.0.0 Safari/537.36" version="27.1.1">
  <diagram name="Страница — 1" id="4dA7DHCTtg-lCIQZyUDv">
    <mxGraphModel dx="1503" dy="3354" grid="1" gridSize="10" guides="1" tooltips="1" connect="1" arrows="1" fold="1" page="1" pageScale="1" pageWidth="1827" pageHeight="2169" background="#FFFFFF" math="0" shadow="0">
      <root>
        <mxCell id="0" />
        <mxCell id="1" parent="0" />
        <mxCell id="7Ppu0MBaxVqKf1uo896O-4" style="edgeStyle=orthogonalEdgeStyle;rounded=0;orthogonalLoop=1;jettySize=auto;html=1;" edge="1" parent="1" source="7Ppu0MBaxVqKf1uo896O-1" target="7Ppu0MBaxVqKf1uo896O-6">
          <mxGeometry relative="1" as="geometry">
            <mxPoint x="650" y="530" as="targetPoint" />
          </mxGeometry>
        </mxCell>
        <mxCell id="7Ppu0MBaxVqKf1uo896O-61" value="Регистрация&lt;div&gt;пациентов&lt;/div&gt;" style="edgeLabel;html=1;align=center;verticalAlign=middle;resizable=0;points=[];" vertex="1" connectable="0" parent="7Ppu0MBaxVqKf1uo896O-4">
          <mxGeometry x="-0.0385" y="4" relative="1" as="geometry">
            <mxPoint x="1" as="offset" />
          </mxGeometry>
        </mxCell>
        <object placeholders="1" c4Name="Patient" c4Type="Person" c4Description="Пациент" label="&lt;font style=&quot;font-size: 16px&quot;&gt;&lt;b&gt;%c4Name%&lt;/b&gt;&lt;/font&gt;&lt;div&gt;[%c4Type%]&lt;/div&gt;&lt;br&gt;&lt;div&gt;&lt;font style=&quot;font-size: 11px&quot;&gt;&lt;font color=&quot;#cccccc&quot;&gt;%c4Description%&lt;/font&gt;&lt;/div&gt;" id="7Ppu0MBaxVqKf1uo896O-1">
          <mxCell style="html=1;fontSize=11;dashed=0;whiteSpace=wrap;fillColor=#083F75;strokeColor=#06315C;fontColor=#ffffff;shape=mxgraph.c4.person2;align=center;metaEdit=1;points=[[0.5,0,0],[1,0.5,0],[1,0.75,0],[0.75,1,0],[0.5,1,0],[0.25,1,0],[0,0.75,0],[0,0.5,0]];resizable=0;" vertex="1" parent="1">
            <mxGeometry x="180" y="440" width="200" height="180" as="geometry" />
          </mxCell>
        </object>
        <object placeholders="1" c4Name="Web-портал клиентов" c4Type="Container" c4Technology="React" c4Description="Портал для клиентов" label="&lt;font style=&quot;font-size: 16px&quot;&gt;&lt;b&gt;%c4Name%&lt;/b&gt;&lt;/font&gt;&lt;div&gt;[%c4Type%: %c4Technology%]&lt;/div&gt;&lt;br&gt;&lt;div&gt;&lt;font style=&quot;font-size: 11px&quot;&gt;&lt;font color=&quot;#E6E6E6&quot;&gt;%c4Description%&lt;/font&gt;&lt;/div&gt;" id="7Ppu0MBaxVqKf1uo896O-6">
          <mxCell style="rounded=1;whiteSpace=wrap;html=1;fontSize=11;labelBackgroundColor=none;fillColor=#23A2D9;fontColor=#ffffff;align=center;arcSize=10;strokeColor=#0E7DAD;metaEdit=1;resizable=0;points=[[0.25,0,0],[0.5,0,0],[0.75,0,0],[1,0.25,0],[1,0.5,0],[1,0.75,0],[0.75,1,0],[0.5,1,0],[0.25,1,0],[0,0.75,0],[0,0.5,0],[0,0.25,0]];" vertex="1" parent="1">
            <mxGeometry x="640" y="470" width="240" height="120" as="geometry" />
          </mxCell>
        </object>
        <mxCell id="7Ppu0MBaxVqKf1uo896O-19" style="edgeStyle=orthogonalEdgeStyle;rounded=0;orthogonalLoop=1;jettySize=auto;html=1;" edge="1" parent="1" source="7Ppu0MBaxVqKf1uo896O-7" target="7Ppu0MBaxVqKf1uo896O-8">
          <mxGeometry relative="1" as="geometry" />
        </mxCell>
        <object placeholders="1" c4Name="Портал клиентов" c4Type="Container" c4Technology="Pyhton" c4Description="Единый портал клиентов" label="&lt;font style=&quot;font-size: 16px&quot;&gt;&lt;b&gt;%c4Name%&lt;/b&gt;&lt;/font&gt;&lt;div&gt;[%c4Type%: %c4Technology%]&lt;/div&gt;&lt;br&gt;&lt;div&gt;&lt;font style=&quot;font-size: 11px&quot;&gt;&lt;font color=&quot;#E6E6E6&quot;&gt;%c4Description%&lt;/font&gt;&lt;/div&gt;" id="7Ppu0MBaxVqKf1uo896O-7">
          <mxCell style="rounded=1;whiteSpace=wrap;html=1;fontSize=11;labelBackgroundColor=none;fillColor=#23A2D9;fontColor=#ffffff;align=center;arcSize=10;strokeColor=#0E7DAD;metaEdit=1;resizable=0;points=[[0.25,0,0],[0.5,0,0],[0.75,0,0],[1,0.25,0],[1,0.5,0],[1,0.75,0],[0.75,1,0],[0.5,1,0],[0.25,1,0],[0,0.75,0],[0,0.5,0],[0,0.25,0]];" vertex="1" parent="1">
            <mxGeometry x="990" y="470" width="240" height="120" as="geometry" />
          </mxCell>
        </object>
        <object placeholders="1" c4Name="БД Клиентов" c4Type="Container" c4Technology="Postgres" c4Description="Хранение данных клиентов" label="&lt;font style=&quot;font-size: 16px&quot;&gt;&lt;b&gt;%c4Name%&lt;/b&gt;&lt;/font&gt;&lt;div&gt;[%c4Type%:&amp;nbsp;%c4Technology%]&lt;/div&gt;&lt;br&gt;&lt;div&gt;&lt;font style=&quot;font-size: 11px&quot;&gt;&lt;font color=&quot;#E6E6E6&quot;&gt;%c4Description%&lt;/font&gt;&lt;/div&gt;" id="7Ppu0MBaxVqKf1uo896O-8">
          <mxCell style="shape=cylinder3;size=15;whiteSpace=wrap;html=1;boundedLbl=1;rounded=0;labelBackgroundColor=none;fillColor=#23A2D9;fontSize=12;fontColor=#ffffff;align=center;strokeColor=#0E7DAD;metaEdit=1;points=[[0.5,0,0],[1,0.25,0],[1,0.5,0],[1,0.75,0],[0.5,1,0],[0,0.75,0],[0,0.5,0],[0,0.25,0]];resizable=0;" vertex="1" parent="1">
            <mxGeometry x="990" y="670" width="240" height="120" as="geometry" />
          </mxCell>
        </object>
        <object placeholders="1" c4Name="Web-сайт для администраторов" c4Type="Container" c4Technology="React" c4Description="Портал для сотрудников ресепшена" label="&lt;font style=&quot;font-size: 16px&quot;&gt;&lt;b&gt;%c4Name%&lt;/b&gt;&lt;/font&gt;&lt;div&gt;[%c4Type%: %c4Technology%]&lt;/div&gt;&lt;br&gt;&lt;div&gt;&lt;font style=&quot;font-size: 11px&quot;&gt;&lt;font color=&quot;#E6E6E6&quot;&gt;%c4Description%&lt;/font&gt;&lt;/div&gt;" id="7Ppu0MBaxVqKf1uo896O-12">
          <mxCell style="rounded=1;whiteSpace=wrap;html=1;fontSize=11;labelBackgroundColor=none;fillColor=#23A2D9;fontColor=#ffffff;align=center;arcSize=10;strokeColor=#0E7DAD;metaEdit=1;resizable=0;points=[[0.25,0,0],[0.5,0,0],[0.75,0,0],[1,0.25,0],[1,0.5,0],[1,0.75,0],[0.75,1,0],[0.5,1,0],[0.25,1,0],[0,0.75,0],[0,0.5,0],[0,0.25,0]];" vertex="1" parent="1">
            <mxGeometry x="650" y="910" width="240" height="120" as="geometry" />
          </mxCell>
        </object>
        <mxCell id="7Ppu0MBaxVqKf1uo896O-17" style="edgeStyle=orthogonalEdgeStyle;rounded=0;orthogonalLoop=1;jettySize=auto;html=1;" edge="1" parent="1" source="7Ppu0MBaxVqKf1uo896O-13" target="7Ppu0MBaxVqKf1uo896O-8">
          <mxGeometry relative="1" as="geometry" />
        </mxCell>
        <object placeholders="1" c4Name="CRM" c4Type="Container" c4Technology="Pyhton" c4Description="Портал сотрудников ресепшн" label="&lt;font style=&quot;font-size: 16px&quot;&gt;&lt;b&gt;%c4Name%&lt;/b&gt;&lt;/font&gt;&lt;div&gt;[%c4Type%: %c4Technology%]&lt;/div&gt;&lt;br&gt;&lt;div&gt;&lt;font style=&quot;font-size: 11px&quot;&gt;&lt;font color=&quot;#E6E6E6&quot;&gt;%c4Description%&lt;/font&gt;&lt;/div&gt;" id="7Ppu0MBaxVqKf1uo896O-13">
          <mxCell style="rounded=1;whiteSpace=wrap;html=1;fontSize=11;labelBackgroundColor=none;fillColor=#23A2D9;fontColor=#ffffff;align=center;arcSize=10;strokeColor=#0E7DAD;metaEdit=1;resizable=0;points=[[0.25,0,0],[0.5,0,0],[0.75,0,0],[1,0.25,0],[1,0.5,0],[1,0.75,0],[0.75,1,0],[0.5,1,0],[0.25,1,0],[0,0.75,0],[0,0.5,0],[0,0.25,0]];" vertex="1" parent="1">
            <mxGeometry x="990" y="910" width="240" height="120" as="geometry" />
          </mxCell>
        </object>
        <mxCell id="7Ppu0MBaxVqKf1uo896O-16" style="edgeStyle=orthogonalEdgeStyle;rounded=0;orthogonalLoop=1;jettySize=auto;html=1;" edge="1" parent="1" source="7Ppu0MBaxVqKf1uo896O-15" target="7Ppu0MBaxVqKf1uo896O-12">
          <mxGeometry relative="1" as="geometry" />
        </mxCell>
        <mxCell id="7Ppu0MBaxVqKf1uo896O-66" value="Работа с данными&lt;div&gt;пациентов и записями&lt;/div&gt;" style="edgeLabel;html=1;align=center;verticalAlign=middle;resizable=0;points=[];" vertex="1" connectable="0" parent="7Ppu0MBaxVqKf1uo896O-16">
          <mxGeometry x="-0.1333" y="1" relative="1" as="geometry">
            <mxPoint as="offset" />
          </mxGeometry>
        </mxCell>
        <object placeholders="1" c4Name="Administrator" c4Type="Person" c4Description="Сотрудник ресепшн" label="&lt;font style=&quot;font-size: 16px&quot;&gt;&lt;b&gt;%c4Name%&lt;/b&gt;&lt;/font&gt;&lt;div&gt;[%c4Type%]&lt;/div&gt;&lt;br&gt;&lt;div&gt;&lt;font style=&quot;font-size: 11px&quot;&gt;&lt;font color=&quot;#cccccc&quot;&gt;%c4Description%&lt;/font&gt;&lt;/div&gt;" id="7Ppu0MBaxVqKf1uo896O-15">
          <mxCell style="html=1;fontSize=11;dashed=0;whiteSpace=wrap;fillColor=#083F75;strokeColor=#06315C;fontColor=#ffffff;shape=mxgraph.c4.person2;align=center;metaEdit=1;points=[[0.5,0,0],[1,0.5,0],[1,0.75,0],[0.75,1,0],[0.5,1,0],[0.25,1,0],[0,0.75,0],[0,0.5,0]];resizable=0;" vertex="1" parent="1">
            <mxGeometry x="180" y="880" width="200" height="180" as="geometry" />
          </mxCell>
        </object>
        <mxCell id="7Ppu0MBaxVqKf1uo896O-18" style="edgeStyle=orthogonalEdgeStyle;rounded=0;orthogonalLoop=1;jettySize=auto;html=1;entryX=0;entryY=0.5;entryDx=0;entryDy=0;entryPerimeter=0;" edge="1" parent="1" source="7Ppu0MBaxVqKf1uo896O-6" target="7Ppu0MBaxVqKf1uo896O-7">
          <mxGeometry relative="1" as="geometry" />
        </mxCell>
        <mxCell id="7Ppu0MBaxVqKf1uo896O-20" style="edgeStyle=orthogonalEdgeStyle;rounded=0;orthogonalLoop=1;jettySize=auto;html=1;entryX=0;entryY=0.5;entryDx=0;entryDy=0;entryPerimeter=0;" edge="1" parent="1" source="7Ppu0MBaxVqKf1uo896O-12" target="7Ppu0MBaxVqKf1uo896O-13">
          <mxGeometry relative="1" as="geometry" />
        </mxCell>
        <object placeholders="1" c4Name="Клиентский портал" c4Type="SystemScopeBoundary" c4Application="Software System" label="&lt;font style=&quot;font-size: 16px&quot;&gt;&lt;b&gt;&lt;div style=&quot;text-align: left&quot;&gt;%c4Name%&lt;/div&gt;&lt;/b&gt;&lt;/font&gt;&lt;div style=&quot;text-align: left&quot;&gt;[%c4Application%]&lt;/div&gt;" id="7Ppu0MBaxVqKf1uo896O-21">
          <mxCell style="rounded=1;fontSize=11;whiteSpace=wrap;html=1;dashed=1;arcSize=20;fillColor=none;strokeColor=#666666;fontColor=#333333;labelBackgroundColor=none;align=left;verticalAlign=bottom;labelBorderColor=none;spacingTop=0;spacing=10;dashPattern=8 4;metaEdit=1;rotatable=0;perimeter=rectanglePerimeter;noLabel=0;labelPadding=0;allowArrows=0;connectable=0;expand=0;recursiveResize=0;editable=1;pointerEvents=0;absoluteArcSize=1;points=[[0.25,0,0],[0.5,0,0],[0.75,0,0],[1,0.25,0],[1,0.5,0],[1,0.75,0],[0.75,1,0],[0.5,1,0],[0.25,1,0],[0,0.75,0],[0,0.5,0],[0,0.25,0]];" vertex="1" parent="1">
            <mxGeometry x="620" y="440" width="640" height="390" as="geometry" />
          </mxCell>
        </object>
        <mxCell id="7Ppu0MBaxVqKf1uo896O-42" style="edgeStyle=orthogonalEdgeStyle;rounded=0;orthogonalLoop=1;jettySize=auto;html=1;" edge="1" parent="1" source="7Ppu0MBaxVqKf1uo896O-23" target="7Ppu0MBaxVqKf1uo896O-41">
          <mxGeometry relative="1" as="geometry" />
        </mxCell>
        <mxCell id="7Ppu0MBaxVqKf1uo896O-43" style="edgeStyle=orthogonalEdgeStyle;rounded=0;orthogonalLoop=1;jettySize=auto;html=1;" edge="1" parent="1" source="7Ppu0MBaxVqKf1uo896O-23" target="7Ppu0MBaxVqKf1uo896O-39">
          <mxGeometry relative="1" as="geometry" />
        </mxCell>
        <mxCell id="7Ppu0MBaxVqKf1uo896O-72" value="Подтверждение данных&lt;div&gt;об оплате&lt;/div&gt;" style="edgeLabel;html=1;align=center;verticalAlign=middle;resizable=0;points=[];" vertex="1" connectable="0" parent="7Ppu0MBaxVqKf1uo896O-43">
          <mxGeometry x="0.0327" relative="1" as="geometry">
            <mxPoint y="1" as="offset" />
          </mxGeometry>
        </mxCell>
        <object placeholders="1" c4Name="Платежный шлюз" c4Type="Container" c4Technology="e.g. SpringBoot, ElasticSearch, etc." c4Description="Процессинг оплат" label="&lt;font style=&quot;font-size: 16px&quot;&gt;&lt;b&gt;%c4Name%&lt;/b&gt;&lt;/font&gt;&lt;div&gt;[%c4Type%: %c4Technology%]&lt;/div&gt;&lt;br&gt;&lt;div&gt;&lt;font style=&quot;font-size: 11px&quot;&gt;&lt;font color=&quot;#E6E6E6&quot;&gt;%c4Description%&lt;/font&gt;&lt;/div&gt;" id="7Ppu0MBaxVqKf1uo896O-23">
          <mxCell style="rounded=1;whiteSpace=wrap;html=1;fontSize=11;labelBackgroundColor=none;fillColor=#23A2D9;fontColor=#ffffff;align=center;arcSize=10;strokeColor=#0E7DAD;metaEdit=1;resizable=0;points=[[0.25,0,0],[0.5,0,0],[0.75,0,0],[1,0.25,0],[1,0.5,0],[1,0.75,0],[0.75,1,0],[0.5,1,0],[0.25,1,0],[0,0.75,0],[0,0.5,0],[0,0.25,0]];" vertex="1" parent="1">
            <mxGeometry x="1420" y="470" width="240" height="120" as="geometry" />
          </mxCell>
        </object>
        <mxCell id="7Ppu0MBaxVqKf1uo896O-29" style="edgeStyle=orthogonalEdgeStyle;rounded=0;orthogonalLoop=1;jettySize=auto;html=1;" edge="1" parent="1" source="7Ppu0MBaxVqKf1uo896O-24" target="7Ppu0MBaxVqKf1uo896O-26">
          <mxGeometry relative="1" as="geometry" />
        </mxCell>
        <mxCell id="7Ppu0MBaxVqKf1uo896O-64" value="Просмотр информации&lt;div&gt;о пациентах&lt;/div&gt;" style="edgeLabel;html=1;align=center;verticalAlign=middle;resizable=0;points=[];" vertex="1" connectable="0" parent="7Ppu0MBaxVqKf1uo896O-29">
          <mxGeometry x="-0.1432" relative="1" as="geometry">
            <mxPoint as="offset" />
          </mxGeometry>
        </mxCell>
        <object placeholders="1" c4Name="Doctor" c4Type="Person" c4Description="Специалист-медик" label="&lt;font style=&quot;font-size: 16px&quot;&gt;&lt;b&gt;%c4Name%&lt;/b&gt;&lt;/font&gt;&lt;div&gt;[%c4Type%]&lt;/div&gt;&lt;br&gt;&lt;div&gt;&lt;font style=&quot;font-size: 11px&quot;&gt;&lt;font color=&quot;#cccccc&quot;&gt;%c4Description%&lt;/font&gt;&lt;/div&gt;" id="7Ppu0MBaxVqKf1uo896O-24">
          <mxCell style="html=1;fontSize=11;dashed=0;whiteSpace=wrap;fillColor=#083F75;strokeColor=#06315C;fontColor=#ffffff;shape=mxgraph.c4.person2;align=center;metaEdit=1;points=[[0.5,0,0],[1,0.5,0],[1,0.75,0],[0.75,1,0],[0.5,1,0],[0.25,1,0],[0,0.75,0],[0,0.5,0]];resizable=0;" vertex="1" parent="1">
            <mxGeometry x="180" y="1260" width="200" height="180" as="geometry" />
          </mxCell>
        </object>
        <object placeholders="1" c4Name="Лаборатория" c4Type="Software System" c4Description="API лаборатории" label="&lt;font style=&quot;font-size: 16px&quot;&gt;&lt;b&gt;%c4Name%&lt;/b&gt;&lt;/font&gt;&lt;div&gt;[%c4Type%]&lt;/div&gt;&lt;br&gt;&lt;div&gt;&lt;font style=&quot;font-size: 11px&quot;&gt;&lt;font color=&quot;#cccccc&quot;&gt;%c4Description%&lt;/font&gt;&lt;/div&gt;" id="7Ppu0MBaxVqKf1uo896O-25">
          <mxCell style="rounded=1;whiteSpace=wrap;html=1;labelBackgroundColor=none;fillColor=#8C8496;fontColor=#ffffff;align=center;arcSize=10;strokeColor=#736782;metaEdit=1;resizable=0;points=[[0.25,0,0],[0.5,0,0],[0.75,0,0],[1,0.25,0],[1,0.5,0],[1,0.75,0],[0.75,1,0],[0.5,1,0],[0.25,1,0],[0,0.75,0],[0,0.5,0],[0,0.25,0]];" vertex="1" parent="1">
            <mxGeometry x="990" y="1730" width="240" height="120" as="geometry" />
          </mxCell>
        </object>
        <object placeholders="1" c4Name="Web-сайт для врачей" c4Type="Container" c4Technology="React" c4Description="Личный кабинет врача" label="&lt;font style=&quot;font-size: 16px&quot;&gt;&lt;b&gt;%c4Name%&lt;/b&gt;&lt;/font&gt;&lt;div&gt;[%c4Type%: %c4Technology%]&lt;/div&gt;&lt;br&gt;&lt;div&gt;&lt;font style=&quot;font-size: 11px&quot;&gt;&lt;font color=&quot;#E6E6E6&quot;&gt;%c4Description%&lt;/font&gt;&lt;/div&gt;" id="7Ppu0MBaxVqKf1uo896O-26">
          <mxCell style="rounded=1;whiteSpace=wrap;html=1;fontSize=11;labelBackgroundColor=none;fillColor=#23A2D9;fontColor=#ffffff;align=center;arcSize=10;strokeColor=#0E7DAD;metaEdit=1;resizable=0;points=[[0.25,0,0],[0.5,0,0],[0.75,0,0],[1,0.25,0],[1,0.5,0],[1,0.75,0],[0.75,1,0],[0.5,1,0],[0.25,1,0],[0,0.75,0],[0,0.5,0],[0,0.25,0]];" vertex="1" parent="1">
            <mxGeometry x="650" y="1290" width="240" height="120" as="geometry" />
          </mxCell>
        </object>
        <mxCell id="7Ppu0MBaxVqKf1uo896O-31" style="edgeStyle=orthogonalEdgeStyle;rounded=0;orthogonalLoop=1;jettySize=auto;html=1;" edge="1" parent="1" source="7Ppu0MBaxVqKf1uo896O-27" target="7Ppu0MBaxVqKf1uo896O-30">
          <mxGeometry relative="1" as="geometry" />
        </mxCell>
        <mxCell id="7Ppu0MBaxVqKf1uo896O-37" style="edgeStyle=orthogonalEdgeStyle;rounded=0;orthogonalLoop=1;jettySize=auto;html=1;" edge="1" parent="1" source="7Ppu0MBaxVqKf1uo896O-27" target="7Ppu0MBaxVqKf1uo896O-33">
          <mxGeometry relative="1" as="geometry" />
        </mxCell>
        <object placeholders="1" c4Name="Медицинская система" c4Type="Container" c4Technology="Pyhton" c4Description="Автоматизация работы врачей" label="&lt;font style=&quot;font-size: 16px&quot;&gt;&lt;b&gt;%c4Name%&lt;/b&gt;&lt;/font&gt;&lt;div&gt;[%c4Type%: %c4Technology%]&lt;/div&gt;&lt;br&gt;&lt;div&gt;&lt;font style=&quot;font-size: 11px&quot;&gt;&lt;font color=&quot;#E6E6E6&quot;&gt;%c4Description%&lt;/font&gt;&lt;/div&gt;" id="7Ppu0MBaxVqKf1uo896O-27">
          <mxCell style="rounded=1;whiteSpace=wrap;html=1;fontSize=11;labelBackgroundColor=none;fillColor=#23A2D9;fontColor=#ffffff;align=center;arcSize=10;strokeColor=#0E7DAD;metaEdit=1;resizable=0;points=[[0.25,0,0],[0.5,0,0],[0.75,0,0],[1,0.25,0],[1,0.5,0],[1,0.75,0],[0.75,1,0],[0.5,1,0],[0.25,1,0],[0,0.75,0],[0,0.5,0],[0,0.25,0]];" vertex="1" parent="1">
            <mxGeometry x="990" y="1290" width="240" height="120" as="geometry" />
          </mxCell>
        </object>
        <mxCell id="7Ppu0MBaxVqKf1uo896O-28" style="edgeStyle=orthogonalEdgeStyle;rounded=0;orthogonalLoop=1;jettySize=auto;html=1;entryX=0;entryY=0.5;entryDx=0;entryDy=0;entryPerimeter=0;" edge="1" parent="1" source="7Ppu0MBaxVqKf1uo896O-26" target="7Ppu0MBaxVqKf1uo896O-27">
          <mxGeometry relative="1" as="geometry" />
        </mxCell>
        <object placeholders="1" c4Name="БД Карточки пациентов" c4Type="Container" c4Technology="Postgres" c4Description="Хранение мед карточек" label="&lt;font style=&quot;font-size: 16px&quot;&gt;&lt;b&gt;%c4Name%&lt;/b&gt;&lt;/font&gt;&lt;div&gt;[%c4Type%:&amp;nbsp;%c4Technology%]&lt;/div&gt;&lt;br&gt;&lt;div&gt;&lt;font style=&quot;font-size: 11px&quot;&gt;&lt;font color=&quot;#E6E6E6&quot;&gt;%c4Description%&lt;/font&gt;&lt;/div&gt;" id="7Ppu0MBaxVqKf1uo896O-30">
          <mxCell style="shape=cylinder3;size=15;whiteSpace=wrap;html=1;boundedLbl=1;rounded=0;labelBackgroundColor=none;fillColor=#23A2D9;fontSize=12;fontColor=#ffffff;align=center;strokeColor=#0E7DAD;metaEdit=1;points=[[0.5,0,0],[1,0.25,0],[1,0.5,0],[1,0.75,0],[0.5,1,0],[0,0.75,0],[0,0.5,0],[0,0.25,0]];resizable=0;" vertex="1" parent="1">
            <mxGeometry x="990" y="1110" width="240" height="120" as="geometry" />
          </mxCell>
        </object>
        <object placeholders="1" c4Name="Сервис медицинских анализов" c4Type="Container" c4Technology="Pyhton" c4Description="Автоматизация заказов на анализы" label="&lt;font style=&quot;font-size: 16px&quot;&gt;&lt;b&gt;%c4Name%&lt;/b&gt;&lt;/font&gt;&lt;div&gt;[%c4Type%: %c4Technology%]&lt;/div&gt;&lt;br&gt;&lt;div&gt;&lt;font style=&quot;font-size: 11px&quot;&gt;&lt;font color=&quot;#E6E6E6&quot;&gt;%c4Description%&lt;/font&gt;&lt;/div&gt;" id="7Ppu0MBaxVqKf1uo896O-32">
          <mxCell style="rounded=1;whiteSpace=wrap;html=1;fontSize=11;labelBackgroundColor=none;fillColor=#23A2D9;fontColor=#ffffff;align=center;arcSize=10;strokeColor=#0E7DAD;metaEdit=1;resizable=0;points=[[0.25,0,0],[0.5,0,0],[0.75,0,0],[1,0.25,0],[1,0.5,0],[1,0.75,0],[0.75,1,0],[0.5,1,0],[0.25,1,0],[0,0.75,0],[0,0.5,0],[0,0.25,0]];" vertex="1" parent="1">
            <mxGeometry x="990" y="1520" width="240" height="120" as="geometry" />
          </mxCell>
        </object>
        <object placeholders="1" c4Name="Реестр анализов" c4Type="Container" c4Technology="Postgres" c4Description="Хранение результатов анализов пациентов" label="&lt;font style=&quot;font-size: 16px&quot;&gt;&lt;b&gt;%c4Name%&lt;/b&gt;&lt;/font&gt;&lt;div&gt;[%c4Type%:&amp;nbsp;%c4Technology%]&lt;/div&gt;&lt;br&gt;&lt;div&gt;&lt;font style=&quot;font-size: 11px&quot;&gt;&lt;font color=&quot;#E6E6E6&quot;&gt;%c4Description%&lt;/font&gt;&lt;/div&gt;" id="7Ppu0MBaxVqKf1uo896O-33">
          <mxCell style="shape=cylinder3;size=15;whiteSpace=wrap;html=1;boundedLbl=1;rounded=0;labelBackgroundColor=none;fillColor=#23A2D9;fontSize=12;fontColor=#ffffff;align=center;strokeColor=#0E7DAD;metaEdit=1;points=[[0.5,0,0],[1,0.25,0],[1,0.5,0],[1,0.75,0],[0.5,1,0],[0,0.75,0],[0,0.5,0],[0,0.25,0]];resizable=0;" vertex="1" parent="1">
            <mxGeometry x="1420" y="1290" width="240" height="120" as="geometry" />
          </mxCell>
        </object>
        <mxCell id="7Ppu0MBaxVqKf1uo896O-34" style="edgeStyle=orthogonalEdgeStyle;rounded=0;orthogonalLoop=1;jettySize=auto;html=1;entryX=0.5;entryY=0;entryDx=0;entryDy=0;entryPerimeter=0;" edge="1" parent="1" source="7Ppu0MBaxVqKf1uo896O-32" target="7Ppu0MBaxVqKf1uo896O-25">
          <mxGeometry relative="1" as="geometry" />
        </mxCell>
        <mxCell id="7Ppu0MBaxVqKf1uo896O-35" style="edgeStyle=orthogonalEdgeStyle;rounded=0;orthogonalLoop=1;jettySize=auto;html=1;entryX=0.5;entryY=0;entryDx=0;entryDy=0;entryPerimeter=0;" edge="1" parent="1" source="7Ppu0MBaxVqKf1uo896O-27" target="7Ppu0MBaxVqKf1uo896O-32">
          <mxGeometry relative="1" as="geometry" />
        </mxCell>
        <mxCell id="7Ppu0MBaxVqKf1uo896O-68" value="Заявка на проведение анализов" style="edgeLabel;html=1;align=center;verticalAlign=middle;resizable=0;points=[];" vertex="1" connectable="0" parent="7Ppu0MBaxVqKf1uo896O-35">
          <mxGeometry x="-0.1667" relative="1" as="geometry">
            <mxPoint as="offset" />
          </mxGeometry>
        </mxCell>
        <mxCell id="7Ppu0MBaxVqKf1uo896O-36" style="edgeStyle=orthogonalEdgeStyle;rounded=0;orthogonalLoop=1;jettySize=auto;html=1;entryX=0.5;entryY=1;entryDx=0;entryDy=0;entryPerimeter=0;" edge="1" parent="1" source="7Ppu0MBaxVqKf1uo896O-32" target="7Ppu0MBaxVqKf1uo896O-33">
          <mxGeometry relative="1" as="geometry" />
        </mxCell>
        <mxCell id="7Ppu0MBaxVqKf1uo896O-44" style="edgeStyle=orthogonalEdgeStyle;rounded=0;orthogonalLoop=1;jettySize=auto;html=1;" edge="1" parent="1" source="7Ppu0MBaxVqKf1uo896O-38" target="7Ppu0MBaxVqKf1uo896O-39">
          <mxGeometry relative="1" as="geometry" />
        </mxCell>
        <mxCell id="7Ppu0MBaxVqKf1uo896O-71" value="Работа с&lt;div&gt;бухгалтерией&lt;/div&gt;" style="edgeLabel;html=1;align=center;verticalAlign=middle;resizable=0;points=[];" vertex="1" connectable="0" parent="7Ppu0MBaxVqKf1uo896O-44">
          <mxGeometry x="0.0444" y="-1" relative="1" as="geometry">
            <mxPoint as="offset" />
          </mxGeometry>
        </mxCell>
        <object placeholders="1" c4Name="Bookkeeper" c4Type="Person" c4Description="Бухгалтер" label="&lt;font style=&quot;font-size: 16px&quot;&gt;&lt;b&gt;%c4Name%&lt;/b&gt;&lt;/font&gt;&lt;div&gt;[%c4Type%]&lt;/div&gt;&lt;br&gt;&lt;div&gt;&lt;font style=&quot;font-size: 11px&quot;&gt;&lt;font color=&quot;#cccccc&quot;&gt;%c4Description%&lt;/font&gt;&lt;/div&gt;" id="7Ppu0MBaxVqKf1uo896O-38">
          <mxCell style="html=1;fontSize=11;dashed=0;whiteSpace=wrap;fillColor=#083F75;strokeColor=#06315C;fontColor=#ffffff;shape=mxgraph.c4.person2;align=center;metaEdit=1;points=[[0.5,0,0],[1,0.5,0],[1,0.75,0],[0.75,1,0],[0.5,1,0],[0.25,1,0],[0,0.75,0],[0,0.5,0]];resizable=0;" vertex="1" parent="1">
            <mxGeometry x="2140" y="150" width="200" height="180" as="geometry" />
          </mxCell>
        </object>
        <object placeholders="1" c4Name="1С.Бухгалтерия" c4Type="Container" c4Technology="1C" c4Description="Бухгалтерская система" label="&lt;font style=&quot;font-size: 16px&quot;&gt;&lt;b&gt;%c4Name%&lt;/b&gt;&lt;/font&gt;&lt;div&gt;[%c4Type%: %c4Technology%]&lt;/div&gt;&lt;br&gt;&lt;div&gt;&lt;font style=&quot;font-size: 11px&quot;&gt;&lt;font color=&quot;#E6E6E6&quot;&gt;%c4Description%&lt;/font&gt;&lt;/div&gt;" id="7Ppu0MBaxVqKf1uo896O-39">
          <mxCell style="rounded=1;whiteSpace=wrap;html=1;fontSize=11;labelBackgroundColor=none;fillColor=#23A2D9;fontColor=#ffffff;align=center;arcSize=10;strokeColor=#0E7DAD;metaEdit=1;resizable=0;points=[[0.25,0,0],[0.5,0,0],[0.75,0,0],[1,0.25,0],[1,0.5,0],[1,0.75,0],[0.75,1,0],[0.5,1,0],[0.25,1,0],[0,0.75,0],[0,0.5,0],[0,0.25,0]];" vertex="1" parent="1">
            <mxGeometry x="1420" y="180" width="240" height="120" as="geometry" />
          </mxCell>
        </object>
        <mxCell id="7Ppu0MBaxVqKf1uo896O-40" style="edgeStyle=orthogonalEdgeStyle;rounded=0;orthogonalLoop=1;jettySize=auto;html=1;entryX=0;entryY=0.5;entryDx=0;entryDy=0;entryPerimeter=0;" edge="1" parent="1" source="7Ppu0MBaxVqKf1uo896O-7" target="7Ppu0MBaxVqKf1uo896O-23">
          <mxGeometry relative="1" as="geometry" />
        </mxCell>
        <object placeholders="1" c4Name="Платежная система" c4Type="Software System" c4Description="API внешней платежной системы" label="&lt;font style=&quot;font-size: 16px&quot;&gt;&lt;b&gt;%c4Name%&lt;/b&gt;&lt;/font&gt;&lt;div&gt;[%c4Type%]&lt;/div&gt;&lt;br&gt;&lt;div&gt;&lt;font style=&quot;font-size: 11px&quot;&gt;&lt;font color=&quot;#cccccc&quot;&gt;%c4Description%&lt;/font&gt;&lt;/div&gt;" id="7Ppu0MBaxVqKf1uo896O-41">
          <mxCell style="rounded=1;whiteSpace=wrap;html=1;labelBackgroundColor=none;fillColor=#8C8496;fontColor=#ffffff;align=center;arcSize=10;strokeColor=#736782;metaEdit=1;resizable=0;points=[[0.25,0,0],[0.5,0,0],[0.75,0,0],[1,0.25,0],[1,0.5,0],[1,0.75,0],[0.75,1,0],[0.5,1,0],[0.25,1,0],[0,0.75,0],[0,0.5,0],[0,0.25,0]];" vertex="1" parent="1">
            <mxGeometry x="1800" y="470" width="240" height="120" as="geometry" />
          </mxCell>
        </object>
        <object placeholders="1" c4Name="1С.Торговля и склад" c4Type="Container" c4Technology="1С" c4Description="Складская система" label="&lt;font style=&quot;font-size: 16px&quot;&gt;&lt;b&gt;%c4Name%&lt;/b&gt;&lt;/font&gt;&lt;div&gt;[%c4Type%: %c4Technology%]&lt;/div&gt;&lt;br&gt;&lt;div&gt;&lt;font style=&quot;font-size: 11px&quot;&gt;&lt;font color=&quot;#E6E6E6&quot;&gt;%c4Description%&lt;/font&gt;&lt;/div&gt;" id="7Ppu0MBaxVqKf1uo896O-45">
          <mxCell style="rounded=1;whiteSpace=wrap;html=1;fontSize=11;labelBackgroundColor=none;fillColor=#23A2D9;fontColor=#ffffff;align=center;arcSize=10;strokeColor=#0E7DAD;metaEdit=1;resizable=0;points=[[0.25,0,0],[0.5,0,0],[0.75,0,0],[1,0.25,0],[1,0.5,0],[1,0.75,0],[0.75,1,0],[0.5,1,0],[0.25,1,0],[0,0.75,0],[0,0.5,0],[0,0.25,0]];" vertex="1" parent="1">
            <mxGeometry x="1420" y="-90" width="240" height="120" as="geometry" />
          </mxCell>
        </object>
        <object placeholders="1" c4Name="ККМ" c4Type="Container" c4Technology="" c4Description="Контрольно-кассовая машина" label="&lt;font style=&quot;font-size: 16px&quot;&gt;&lt;b&gt;%c4Name%&lt;/b&gt;&lt;/font&gt;&lt;div&gt;[%c4Type%: %c4Technology%]&lt;/div&gt;&lt;br&gt;&lt;div&gt;&lt;font style=&quot;font-size: 11px&quot;&gt;&lt;font color=&quot;#E6E6E6&quot;&gt;%c4Description%&lt;/font&gt;&lt;/div&gt;" id="7Ppu0MBaxVqKf1uo896O-46">
          <mxCell style="rounded=1;whiteSpace=wrap;html=1;fontSize=11;labelBackgroundColor=none;fillColor=#23A2D9;fontColor=#ffffff;align=center;arcSize=10;strokeColor=#0E7DAD;metaEdit=1;resizable=0;points=[[0.25,0,0],[0.5,0,0],[0.75,0,0],[1,0.25,0],[1,0.5,0],[1,0.75,0],[0.75,1,0],[0.5,1,0],[0.25,1,0],[0,0.75,0],[0,0.5,0],[0,0.25,0]];" vertex="1" parent="1">
            <mxGeometry x="1000" y="180" width="240" height="120" as="geometry" />
          </mxCell>
        </object>
        <mxCell id="7Ppu0MBaxVqKf1uo896O-47" style="edgeStyle=orthogonalEdgeStyle;rounded=0;orthogonalLoop=1;jettySize=auto;html=1;entryX=0;entryY=0.5;entryDx=0;entryDy=0;entryPerimeter=0;" edge="1" parent="1" source="7Ppu0MBaxVqKf1uo896O-1" target="7Ppu0MBaxVqKf1uo896O-49">
          <mxGeometry relative="1" as="geometry">
            <Array as="points">
              <mxPoint x="410" y="240" />
            </Array>
          </mxGeometry>
        </mxCell>
        <mxCell id="7Ppu0MBaxVqKf1uo896O-62" value="Оплата через кассу" style="edgeLabel;html=1;align=center;verticalAlign=middle;resizable=0;points=[];" vertex="1" connectable="0" parent="7Ppu0MBaxVqKf1uo896O-47">
          <mxGeometry x="-0.2782" y="1" relative="1" as="geometry">
            <mxPoint as="offset" />
          </mxGeometry>
        </mxCell>
        <mxCell id="7Ppu0MBaxVqKf1uo896O-48" style="edgeStyle=orthogonalEdgeStyle;rounded=0;orthogonalLoop=1;jettySize=auto;html=1;entryX=0;entryY=0.5;entryDx=0;entryDy=0;entryPerimeter=0;" edge="1" parent="1" source="7Ppu0MBaxVqKf1uo896O-46" target="7Ppu0MBaxVqKf1uo896O-39">
          <mxGeometry relative="1" as="geometry" />
        </mxCell>
        <mxCell id="7Ppu0MBaxVqKf1uo896O-50" style="edgeStyle=orthogonalEdgeStyle;rounded=0;orthogonalLoop=1;jettySize=auto;html=1;" edge="1" parent="1" source="7Ppu0MBaxVqKf1uo896O-49" target="7Ppu0MBaxVqKf1uo896O-46">
          <mxGeometry relative="1" as="geometry" />
        </mxCell>
        <object placeholders="1" c4Name="Cashier" c4Type="Person" c4Description="Кассир" label="&lt;font style=&quot;font-size: 16px&quot;&gt;&lt;b&gt;%c4Name%&lt;/b&gt;&lt;/font&gt;&lt;div&gt;[%c4Type%]&lt;/div&gt;&lt;br&gt;&lt;div&gt;&lt;font style=&quot;font-size: 11px&quot;&gt;&lt;font color=&quot;#cccccc&quot;&gt;%c4Description%&lt;/font&gt;&lt;/div&gt;" id="7Ppu0MBaxVqKf1uo896O-49">
          <mxCell style="html=1;fontSize=11;dashed=0;whiteSpace=wrap;fillColor=#083F75;strokeColor=#06315C;fontColor=#ffffff;shape=mxgraph.c4.person2;align=center;metaEdit=1;points=[[0.5,0,0],[1,0.5,0],[1,0.75,0],[0.75,1,0],[0.5,1,0],[0.25,1,0],[0,0.75,0],[0,0.5,0]];resizable=0;" vertex="1" parent="1">
            <mxGeometry x="650" y="150" width="200" height="180" as="geometry" />
          </mxCell>
        </object>
        <object placeholders="1" c4Name="Warehouse keeper" c4Type="Person" c4Description="Сотрудник склада" label="&lt;font style=&quot;font-size: 16px&quot;&gt;&lt;b&gt;%c4Name%&lt;/b&gt;&lt;/font&gt;&lt;div&gt;[%c4Type%]&lt;/div&gt;&lt;br&gt;&lt;div&gt;&lt;font style=&quot;font-size: 11px&quot;&gt;&lt;font color=&quot;#cccccc&quot;&gt;%c4Description%&lt;/font&gt;&lt;/div&gt;" id="7Ppu0MBaxVqKf1uo896O-51">
          <mxCell style="html=1;fontSize=11;dashed=0;whiteSpace=wrap;fillColor=#083F75;strokeColor=#06315C;fontColor=#ffffff;shape=mxgraph.c4.person2;align=center;metaEdit=1;points=[[0.5,0,0],[1,0.5,0],[1,0.75,0],[0.75,1,0],[0.5,1,0],[0.25,1,0],[0,0.75,0],[0,0.5,0]];resizable=0;" vertex="1" parent="1">
            <mxGeometry x="2140" y="-120" width="200" height="180" as="geometry" />
          </mxCell>
        </object>
        <mxCell id="7Ppu0MBaxVqKf1uo896O-53" value="Работа со&amp;nbsp;&lt;div&gt;складом&lt;/div&gt;" style="edgeStyle=orthogonalEdgeStyle;rounded=0;orthogonalLoop=1;jettySize=auto;html=1;entryX=1;entryY=0.5;entryDx=0;entryDy=0;entryPerimeter=0;exitX=0;exitY=0.5;exitDx=0;exitDy=0;exitPerimeter=0;" edge="1" parent="1" source="7Ppu0MBaxVqKf1uo896O-51" target="7Ppu0MBaxVqKf1uo896O-45">
          <mxGeometry relative="1" as="geometry" />
        </mxCell>
        <mxCell id="7Ppu0MBaxVqKf1uo896O-54" style="edgeStyle=orthogonalEdgeStyle;rounded=0;orthogonalLoop=1;jettySize=auto;html=1;entryX=0.5;entryY=1;entryDx=0;entryDy=0;entryPerimeter=0;" edge="1" parent="1" source="7Ppu0MBaxVqKf1uo896O-39" target="7Ppu0MBaxVqKf1uo896O-45">
          <mxGeometry relative="1" as="geometry" />
        </mxCell>
        <mxCell id="7Ppu0MBaxVqKf1uo896O-58" style="edgeStyle=orthogonalEdgeStyle;rounded=0;orthogonalLoop=1;jettySize=auto;html=1;entryX=1;entryY=0.25;entryDx=0;entryDy=0;entryPerimeter=0;" edge="1" parent="1" source="7Ppu0MBaxVqKf1uo896O-55" target="7Ppu0MBaxVqKf1uo896O-27">
          <mxGeometry relative="1" as="geometry">
            <Array as="points">
              <mxPoint x="1330" y="970" />
              <mxPoint x="1330" y="1320" />
            </Array>
          </mxGeometry>
        </mxCell>
        <mxCell id="7Ppu0MBaxVqKf1uo896O-59" style="edgeStyle=orthogonalEdgeStyle;rounded=0;orthogonalLoop=1;jettySize=auto;html=1;" edge="1" parent="1" source="7Ppu0MBaxVqKf1uo896O-55" target="7Ppu0MBaxVqKf1uo896O-13">
          <mxGeometry relative="1" as="geometry" />
        </mxCell>
        <mxCell id="7Ppu0MBaxVqKf1uo896O-70" style="edgeStyle=orthogonalEdgeStyle;rounded=0;orthogonalLoop=1;jettySize=auto;html=1;" edge="1" parent="1" source="7Ppu0MBaxVqKf1uo896O-55" target="7Ppu0MBaxVqKf1uo896O-69">
          <mxGeometry relative="1" as="geometry" />
        </mxCell>
        <object placeholders="1" c4Name="BI/Аналитическая система" c4Type="Container" c4Technology="e.g. SpringBoot, ElasticSearch, etc." c4Description="Анализ данных пациентов" label="&lt;font style=&quot;font-size: 16px&quot;&gt;&lt;b&gt;%c4Name%&lt;/b&gt;&lt;/font&gt;&lt;div&gt;[%c4Type%: %c4Technology%]&lt;/div&gt;&lt;br&gt;&lt;div&gt;&lt;font style=&quot;font-size: 11px&quot;&gt;&lt;font color=&quot;#E6E6E6&quot;&gt;%c4Description%&lt;/font&gt;&lt;/div&gt;" id="7Ppu0MBaxVqKf1uo896O-55">
          <mxCell style="rounded=1;whiteSpace=wrap;html=1;fontSize=11;labelBackgroundColor=none;fillColor=#23A2D9;fontColor=#ffffff;align=center;arcSize=10;strokeColor=#0E7DAD;metaEdit=1;resizable=0;points=[[0.25,0,0],[0.5,0,0],[0.75,0,0],[1,0.25,0],[1,0.5,0],[1,0.75,0],[0.75,1,0],[0.5,1,0],[0.25,1,0],[0,0.75,0],[0,0.5,0],[0,0.25,0]];" vertex="1" parent="1">
            <mxGeometry x="1420" y="910" width="240" height="120" as="geometry" />
          </mxCell>
        </object>
        <mxCell id="7Ppu0MBaxVqKf1uo896O-60" style="edgeStyle=orthogonalEdgeStyle;rounded=0;orthogonalLoop=1;jettySize=auto;html=1;entryX=0;entryY=0.5;entryDx=0;entryDy=0;entryPerimeter=0;" edge="1" parent="1" source="7Ppu0MBaxVqKf1uo896O-55" target="7Ppu0MBaxVqKf1uo896O-39">
          <mxGeometry relative="1" as="geometry">
            <Array as="points">
              <mxPoint x="1330" y="970" />
              <mxPoint x="1330" y="241" />
            </Array>
          </mxGeometry>
        </mxCell>
        <object placeholders="1" c4Name="Медицинская система" c4Type="SystemScopeBoundary" c4Application="Software System" label="&lt;font style=&quot;font-size: 16px&quot;&gt;&lt;b&gt;&lt;div style=&quot;text-align: left&quot;&gt;%c4Name%&lt;/div&gt;&lt;/b&gt;&lt;/font&gt;&lt;div style=&quot;text-align: left&quot;&gt;[%c4Application%]&lt;/div&gt;" id="7Ppu0MBaxVqKf1uo896O-63">
          <mxCell style="rounded=1;fontSize=11;whiteSpace=wrap;html=1;dashed=1;arcSize=20;fillColor=none;strokeColor=#666666;fontColor=#333333;labelBackgroundColor=none;align=left;verticalAlign=bottom;labelBorderColor=none;spacingTop=0;spacing=10;dashPattern=8 4;metaEdit=1;rotatable=0;perimeter=rectanglePerimeter;noLabel=0;labelPadding=0;allowArrows=0;connectable=0;expand=0;recursiveResize=0;editable=1;pointerEvents=0;absoluteArcSize=1;points=[[0.25,0,0],[0.5,0,0],[0.75,0,0],[1,0.25,0],[1,0.5,0],[1,0.75,0],[0.75,1,0],[0.5,1,0],[0.25,1,0],[0,0.75,0],[0,0.5,0],[0,0.25,0]];" vertex="1" parent="1">
            <mxGeometry x="610" y="1085" width="650" height="395" as="geometry" />
          </mxCell>
        </object>
        <mxCell id="7Ppu0MBaxVqKf1uo896O-65" style="edgeStyle=orthogonalEdgeStyle;rounded=0;orthogonalLoop=1;jettySize=auto;html=1;entryX=0;entryY=0.25;entryDx=0;entryDy=0;entryPerimeter=0;" edge="1" parent="1" source="7Ppu0MBaxVqKf1uo896O-12" target="7Ppu0MBaxVqKf1uo896O-27">
          <mxGeometry relative="1" as="geometry" />
        </mxCell>
        <mxCell id="7Ppu0MBaxVqKf1uo896O-67" value="Запись пациентов&lt;div&gt;к врачам&lt;/div&gt;" style="edgeLabel;html=1;align=center;verticalAlign=middle;resizable=0;points=[];" vertex="1" connectable="0" parent="7Ppu0MBaxVqKf1uo896O-65">
          <mxGeometry x="-0.2738" y="1" relative="1" as="geometry">
            <mxPoint y="-1" as="offset" />
          </mxGeometry>
        </mxCell>
        <object placeholders="1" c4Name="Витрины данных" c4Type="Container" c4Technology="Clickhouse" c4Description="Хранение аналитической информации" label="&lt;font style=&quot;font-size: 16px&quot;&gt;&lt;b&gt;%c4Name%&lt;/b&gt;&lt;/font&gt;&lt;div&gt;[%c4Type%:&amp;nbsp;%c4Technology%]&lt;/div&gt;&lt;br&gt;&lt;div&gt;&lt;font style=&quot;font-size: 11px&quot;&gt;&lt;font color=&quot;#E6E6E6&quot;&gt;%c4Description%&lt;/font&gt;&lt;/div&gt;" id="7Ppu0MBaxVqKf1uo896O-69">
          <mxCell style="shape=cylinder3;size=15;whiteSpace=wrap;html=1;boundedLbl=1;rounded=0;labelBackgroundColor=none;fillColor=#23A2D9;fontSize=12;fontColor=#ffffff;align=center;strokeColor=#0E7DAD;metaEdit=1;points=[[0.5,0,0],[1,0.25,0],[1,0.5,0],[1,0.75,0],[0.5,1,0],[0,0.75,0],[0,0.5,0],[0,0.25,0]];resizable=0;" vertex="1" parent="1">
            <mxGeometry x="1790" y="910" width="240" height="120" as="geometry" />
          </mxCell>
        </object>
        <mxCell id="7Ppu0MBaxVqKf1uo896O-73" value="Legend" style="shape=table;startSize=30;container=1;collapsible=0;childLayout=tableLayout;fontSize=16;align=left;verticalAlign=top;fillColor=none;strokeColor=none;fontColor=#4D4D4D;fontStyle=1;spacingLeft=6;spacing=0;resizable=0;" vertex="1" parent="1">
          <mxGeometry x="190" y="1640" width="180" height="210" as="geometry" />
        </mxCell>
        <mxCell id="7Ppu0MBaxVqKf1uo896O-74" value="" style="shape=tableRow;horizontal=0;startSize=0;swimlaneHead=0;swimlaneBody=0;strokeColor=inherit;top=0;left=0;bottom=0;right=0;collapsible=0;dropTarget=0;fillColor=none;points=[[0,0.5],[1,0.5]];portConstraint=eastwest;fontSize=12;" vertex="1" parent="7Ppu0MBaxVqKf1uo896O-73">
          <mxGeometry y="30" width="180" height="30" as="geometry" />
        </mxCell>
        <mxCell id="7Ppu0MBaxVqKf1uo896O-75" value="Person" style="shape=partialRectangle;html=1;whiteSpace=wrap;connectable=0;strokeColor=inherit;overflow=hidden;fillColor=#1E4074;top=0;left=0;bottom=0;right=0;pointerEvents=1;fontSize=12;align=left;fontColor=#FFFFFF;gradientColor=none;spacingLeft=10;spacingRight=4;" vertex="1" parent="7Ppu0MBaxVqKf1uo896O-74">
          <mxGeometry width="180" height="30" as="geometry">
            <mxRectangle width="180" height="30" as="alternateBounds" />
          </mxGeometry>
        </mxCell>
        <mxCell id="7Ppu0MBaxVqKf1uo896O-76" value="" style="shape=tableRow;horizontal=0;startSize=0;swimlaneHead=0;swimlaneBody=0;strokeColor=inherit;top=0;left=0;bottom=0;right=0;collapsible=0;dropTarget=0;fillColor=none;points=[[0,0.5],[1,0.5]];portConstraint=eastwest;fontSize=12;" vertex="1" parent="7Ppu0MBaxVqKf1uo896O-73">
          <mxGeometry y="60" width="180" height="30" as="geometry" />
        </mxCell>
        <mxCell id="7Ppu0MBaxVqKf1uo896O-77" value="Software System" style="shape=partialRectangle;html=1;whiteSpace=wrap;connectable=0;strokeColor=inherit;overflow=hidden;fillColor=#3162AF;top=0;left=0;bottom=0;right=0;pointerEvents=1;fontSize=12;align=left;fontColor=#FFFFFF;gradientColor=none;spacingLeft=10;spacingRight=4;" vertex="1" parent="7Ppu0MBaxVqKf1uo896O-76">
          <mxGeometry width="180" height="30" as="geometry">
            <mxRectangle width="180" height="30" as="alternateBounds" />
          </mxGeometry>
        </mxCell>
        <mxCell id="7Ppu0MBaxVqKf1uo896O-78" value="" style="shape=tableRow;horizontal=0;startSize=0;swimlaneHead=0;swimlaneBody=0;strokeColor=inherit;top=0;left=0;bottom=0;right=0;collapsible=0;dropTarget=0;fillColor=none;points=[[0,0.5],[1,0.5]];portConstraint=eastwest;fontSize=12;" vertex="1" parent="7Ppu0MBaxVqKf1uo896O-73">
          <mxGeometry y="90" width="180" height="30" as="geometry" />
        </mxCell>
        <mxCell id="7Ppu0MBaxVqKf1uo896O-79" value="Container" style="shape=partialRectangle;html=1;whiteSpace=wrap;connectable=0;strokeColor=inherit;overflow=hidden;fillColor=#52a2d8;top=0;left=0;bottom=0;right=0;pointerEvents=1;fontSize=12;align=left;fontColor=#FFFFFF;gradientColor=none;spacingLeft=10;spacingRight=4;" vertex="1" parent="7Ppu0MBaxVqKf1uo896O-78">
          <mxGeometry width="180" height="30" as="geometry">
            <mxRectangle width="180" height="30" as="alternateBounds" />
          </mxGeometry>
        </mxCell>
        <mxCell id="7Ppu0MBaxVqKf1uo896O-80" value="" style="shape=tableRow;horizontal=0;startSize=0;swimlaneHead=0;swimlaneBody=0;strokeColor=inherit;top=0;left=0;bottom=0;right=0;collapsible=0;dropTarget=0;fillColor=none;points=[[0,0.5],[1,0.5]];portConstraint=eastwest;fontSize=12;" vertex="1" parent="7Ppu0MBaxVqKf1uo896O-73">
          <mxGeometry y="120" width="180" height="30" as="geometry" />
        </mxCell>
        <mxCell id="7Ppu0MBaxVqKf1uo896O-81" value="Component" style="shape=partialRectangle;html=1;whiteSpace=wrap;connectable=0;strokeColor=inherit;overflow=hidden;fillColor=#7dbef2;top=0;left=0;bottom=0;right=0;pointerEvents=1;fontSize=12;align=left;fontColor=#FFFFFF;gradientColor=none;spacingLeft=10;spacingRight=4;" vertex="1" parent="7Ppu0MBaxVqKf1uo896O-80">
          <mxGeometry width="180" height="30" as="geometry">
            <mxRectangle width="180" height="30" as="alternateBounds" />
          </mxGeometry>
        </mxCell>
        <mxCell id="7Ppu0MBaxVqKf1uo896O-82" value="" style="shape=tableRow;horizontal=0;startSize=0;swimlaneHead=0;swimlaneBody=0;strokeColor=inherit;top=0;left=0;bottom=0;right=0;collapsible=0;dropTarget=0;fillColor=none;points=[[0,0.5],[1,0.5]];portConstraint=eastwest;fontSize=12;" vertex="1" parent="7Ppu0MBaxVqKf1uo896O-73">
          <mxGeometry y="150" width="180" height="30" as="geometry" />
        </mxCell>
        <mxCell id="7Ppu0MBaxVqKf1uo896O-83" value="External Person" style="shape=partialRectangle;html=1;whiteSpace=wrap;connectable=0;strokeColor=inherit;overflow=hidden;fillColor=#6b6477;top=0;left=0;bottom=0;right=0;pointerEvents=1;fontSize=12;align=left;fontColor=#FFFFFF;gradientColor=none;spacingLeft=10;spacingRight=4;" vertex="1" parent="7Ppu0MBaxVqKf1uo896O-82">
          <mxGeometry width="180" height="30" as="geometry">
            <mxRectangle width="180" height="30" as="alternateBounds" />
          </mxGeometry>
        </mxCell>
        <mxCell id="7Ppu0MBaxVqKf1uo896O-84" value="" style="shape=tableRow;horizontal=0;startSize=0;swimlaneHead=0;swimlaneBody=0;strokeColor=inherit;top=0;left=0;bottom=0;right=0;collapsible=0;dropTarget=0;fillColor=none;points=[[0,0.5],[1,0.5]];portConstraint=eastwest;fontSize=12;" vertex="1" parent="7Ppu0MBaxVqKf1uo896O-73">
          <mxGeometry y="180" width="180" height="30" as="geometry" />
        </mxCell>
        <mxCell id="7Ppu0MBaxVqKf1uo896O-85" value="External Software System" style="shape=partialRectangle;html=1;whiteSpace=wrap;connectable=0;strokeColor=inherit;overflow=hidden;fillColor=#8b8496;top=0;left=0;bottom=0;right=0;pointerEvents=1;fontSize=12;align=left;fontColor=#FFFFFF;gradientColor=none;spacingLeft=10;spacingRight=4;" vertex="1" parent="7Ppu0MBaxVqKf1uo896O-84">
          <mxGeometry width="180" height="30" as="geometry">
            <mxRectangle width="180" height="30" as="alternateBounds" />
          </mxGeometry>
        </mxCell>
        <mxCell id="7Ppu0MBaxVqKf1uo896O-86" value="Хранение данных:&lt;div&gt;&lt;div&gt;&lt;br&gt;&lt;b&gt;Тег: &lt;/b&gt;PHI&lt;/div&gt;&lt;div&gt;&lt;br&gt;&lt;/div&gt;&lt;div&gt;&lt;b&gt;RBAC:&lt;/b&gt; Врачи&lt;/div&gt;&lt;div&gt;&lt;br&gt;&lt;/div&gt;&lt;div&gt;&lt;b&gt;Способ защиты:&lt;/b&gt; Детерминированное маскирование&lt;/div&gt;&lt;/div&gt;&lt;div&gt;&lt;br&gt;&lt;/div&gt;&lt;div&gt;&lt;b&gt;Удаление:&lt;/b&gt;&amp;nbsp;только по заявлению пациента&lt;/div&gt;" style="whiteSpace=wrap;html=1;aspect=fixed;fillColor=#f8cecc;strokeColor=#b85450;align=left;" vertex="1" parent="1">
          <mxGeometry x="1210" y="1060" width="190" height="190" as="geometry" />
        </mxCell>
        <mxCell id="7Ppu0MBaxVqKf1uo896O-87" value="Хранение данных:&lt;div&gt;&lt;div&gt;&lt;br&gt;&lt;b&gt;Тег:&amp;nbsp;&lt;/b&gt;&lt;span style=&quot;background-color: transparent;&quot;&gt;Clinical&lt;/span&gt;&lt;/div&gt;&lt;div&gt;&lt;br&gt;&lt;/div&gt;&lt;div&gt;&lt;b&gt;RBAC:&lt;/b&gt; Врачи, API Сервис мед. анализов&lt;/div&gt;&lt;div&gt;&lt;br&gt;&lt;/div&gt;&lt;div&gt;&lt;b&gt;Способ защиты:&lt;/b&gt; Детерминированное маскирование&lt;/div&gt;&lt;/div&gt;&lt;div&gt;&lt;br&gt;&lt;/div&gt;&lt;div&gt;&lt;b&gt;Удаление:&lt;/b&gt;&amp;nbsp;только по заявлению пациента&lt;/div&gt;" style="whiteSpace=wrap;html=1;aspect=fixed;fillColor=#f8cecc;strokeColor=#b85450;align=left;" vertex="1" parent="1">
          <mxGeometry x="1650" y="1255" width="190" height="190" as="geometry" />
        </mxCell>
        <mxCell id="7Ppu0MBaxVqKf1uo896O-88" value="Хранение данных:&lt;div&gt;&lt;div&gt;&lt;br&gt;&lt;b&gt;Тег:&amp;nbsp;&lt;/b&gt;&lt;span style=&quot;background-color: transparent;&quot;&gt;Payment_info&lt;/span&gt;&lt;/div&gt;&lt;div&gt;&lt;br&gt;&lt;/div&gt;&lt;div&gt;&lt;b&gt;RBAC:&lt;/b&gt; Бухгалтерия, API Портал клиентов&lt;/div&gt;&lt;div&gt;&lt;br&gt;&lt;/div&gt;&lt;div&gt;&lt;b&gt;Способ защиты:&lt;/b&gt; Шифрование&lt;/div&gt;&lt;/div&gt;&lt;div&gt;&lt;br&gt;&lt;/div&gt;&lt;div&gt;&lt;b&gt;Удаление:&lt;/b&gt;&amp;nbsp;только по заявлению пациента&lt;/div&gt;" style="whiteSpace=wrap;html=1;aspect=fixed;fillColor=#f8cecc;strokeColor=#b85450;align=left;" vertex="1" parent="1">
          <mxGeometry x="1640" y="145" width="190" height="190" as="geometry" />
        </mxCell>
        <mxCell id="7Ppu0MBaxVqKf1uo896O-89" value="Хранение данных:&lt;div&gt;&lt;div&gt;&lt;br&gt;&lt;b&gt;Тег: &lt;/b&gt;W&lt;span style=&quot;background-color: transparent;&quot;&gt;arehouse&lt;/span&gt;&lt;/div&gt;&lt;div&gt;&lt;br&gt;&lt;/div&gt;&lt;div&gt;&lt;b&gt;RBAC:&lt;/b&gt; Сотрудник склада, Бухгалтер, API 1С.Бухгалтерия&lt;/div&gt;&lt;div&gt;&lt;br&gt;&lt;/div&gt;&lt;div&gt;&lt;b&gt;Способ защиты:&lt;/b&gt; Шифрование&lt;/div&gt;&lt;/div&gt;&lt;div&gt;&lt;br&gt;&lt;/div&gt;&lt;div&gt;&lt;b&gt;Удаление:&lt;/b&gt;&amp;nbsp;не предусмотрено&lt;/div&gt;" style="whiteSpace=wrap;html=1;aspect=fixed;fillColor=#f8cecc;strokeColor=#b85450;align=left;" vertex="1" parent="1">
          <mxGeometry x="1650" y="-130" width="190" height="190" as="geometry" />
        </mxCell>
        <mxCell id="7Ppu0MBaxVqKf1uo896O-91" value="Хранение данных:&lt;div&gt;&lt;div&gt;&lt;br&gt;&lt;b&gt;Тег: &lt;/b&gt;A&lt;span style=&quot;background-color: transparent;&quot;&gt;nalytics&lt;/span&gt;&lt;/div&gt;&lt;div&gt;&lt;br&gt;&lt;/div&gt;&lt;div&gt;&lt;b&gt;RBAC:&lt;/b&gt;&amp;nbsp;Бизнес-аналитики&lt;/div&gt;&lt;div&gt;&lt;br&gt;&lt;/div&gt;&lt;div&gt;&lt;b&gt;Способ защиты:&lt;/b&gt; нет&lt;/div&gt;&lt;/div&gt;&lt;div&gt;&lt;br&gt;&lt;/div&gt;&lt;div&gt;&lt;b&gt;Удаление:&lt;/b&gt;&amp;nbsp;5 лет&lt;/div&gt;" style="whiteSpace=wrap;html=1;aspect=fixed;fillColor=#f8cecc;strokeColor=#b85450;align=left;" vertex="1" parent="1">
          <mxGeometry x="2020" y="875" width="190" height="190" as="geometry" />
        </mxCell>
        <mxCell id="7Ppu0MBaxVqKf1uo896O-92" value="Хранение данных:&lt;div&gt;&lt;div&gt;&lt;br&gt;&lt;b&gt;Тег: &lt;/b&gt;PII&lt;/div&gt;&lt;div&gt;&lt;br&gt;&lt;/div&gt;&lt;div&gt;&lt;b&gt;RBAC:&lt;/b&gt;&amp;nbsp;Сотрудник ресепшн, Пациенты (свои данные через ЛК)&lt;/div&gt;&lt;div&gt;&lt;br&gt;&lt;/div&gt;&lt;div&gt;&lt;b&gt;Способ защиты:&lt;/b&gt; Шифрование&lt;/div&gt;&lt;/div&gt;&lt;div&gt;&lt;br&gt;&lt;/div&gt;&lt;div&gt;&lt;b&gt;Удаление:&lt;/b&gt;&amp;nbsp;только по заявлению пациента&lt;/div&gt;" style="whiteSpace=wrap;html=1;aspect=fixed;fillColor=#f8cecc;strokeColor=#b85450;align=left;" vertex="1" parent="1">
          <mxGeometry x="1220" y="635" width="190" height="190" as="geometry" />
        </mxCell>
        <mxCell id="7Ppu0MBaxVqKf1uo896O-93" value="&lt;b&gt;Защита данных в пути&lt;/b&gt;&lt;div&gt;- web: SSL&lt;/div&gt;&lt;div&gt;- межсервисные: TLS/SSH&lt;/div&gt;&lt;div&gt;- интранет (Doctor/Administrator): VPN&lt;/div&gt;" style="ellipse;shape=cloud;whiteSpace=wrap;html=1;fillColor=#f8cecc;strokeColor=#b85450;align=center;" vertex="1" parent="1">
          <mxGeometry x="530" y="1660" width="340" height="210" as="geometry" />
        </mxCell>
      </root>
    </mxGraphModel>
  </diagram>
</mxfile>
